<svg xmlns="http://www.w3.org/2000/svg" xmlns:xlink="http://www.w3.org/1999/xlink" width="500" zoomAndPan="magnify" viewBox="0 0 375 374.999991" height="500" preserveAspectRatio="xMidYMid meet" version="1.0"><defs><g/><clipPath id="5fa09d76fc"><path d="M 199 222 L 221 222 L 221 245.730469 L 199 245.730469 Z M 199 222 " clip-rule="nonzero"/></clipPath><clipPath id="09d50c1ea9"><path d="M 229 164 L 244.703125 164 L 244.703125 185 L 229 185 Z M 229 164 " clip-rule="nonzero"/></clipPath><clipPath id="95ebaea96a"><path d="M 184 211 L 216 211 L 216 245.730469 L 184 245.730469 Z M 184 211 " clip-rule="nonzero"/></clipPath><clipPath id="46593ee245"><path d="M 180 136.230469 L 222 136.230469 L 222 170 L 180 170 Z M 180 136.230469 " clip-rule="nonzero"/></clipPath><clipPath id="143d48f47d"><path d="M 191 149 L 244.703125 149 L 244.703125 219 L 191 219 Z M 191 149 " clip-rule="nonzero"/></clipPath><clipPath id="4b43d4a8c9"><path d="M 161 136.230469 L 244 136.230469 L 244 245 L 161 245 Z M 161 136.230469 " clip-rule="nonzero"/></clipPath><clipPath id="f7c4a5f000"><path d="M 150.203125 152 L 169 152 L 169 164 L 150.203125 164 Z M 150.203125 152 " clip-rule="nonzero"/></clipPath></defs><path fill="#c4af91" d="M 216.855469 237.46875 C 212.601562 239.835938 207.839844 241.195312 203.011719 241.503906 C 205.144531 235.871094 208.625 230.886719 212.730469 226.5 C 213.945312 230.207031 215.320312 233.867188 216.855469 237.46875 Z M 216.855469 237.46875 " fill-opacity="1" fill-rule="nonzero"/><g clip-path="url(#5fa09d76fc)"><path stroke-linecap="butt" transform="matrix(0.254169, 0, 0, 0.25384, 132.130001, 125.123267)" fill="none" stroke-linejoin="miter" d="M 333.343154 442.584525 C 316.606622 451.910049 297.872156 457.265301 278.876422 458.481005 C 287.267742 436.290565 300.961268 416.654642 317.113789 399.373183 C 321.89346 413.977016 327.303248 428.396185 333.343154 442.584525 Z M 333.343154 442.584525 " stroke="#c4af91" stroke-width="1" stroke-opacity="1" stroke-miterlimit="10"/></g><path stroke-linecap="butt" transform="matrix(0.254169, 0, 0, 0.25384, 132.130001, 125.123267)" fill-opacity="1" fill="#c4af91" fill-rule="nonzero" stroke-linejoin="miter" d="M 260.2188 213.124301 C 260.203432 213.293576 260.188063 213.447462 260.188063 213.616737 C 260.003638 228.759173 251.289576 241.223983 240.208731 250.780338 C 222.058277 251.072722 204.030773 254.027344 186.802441 259.505705 C 186.295274 259.013268 185.649788 258.597774 184.865983 258.320778 C 157.463561 248.687481 136.40842 227.605024 130.798838 198.597411 C 130.737363 198.289638 130.66052 198.012642 130.552939 197.766424 C 131.567274 195.165741 132.673821 192.595836 133.918687 190.087485 C 153.821175 207.722883 181.146754 215.170992 207.442628 210.61595 C 211.592181 209.908072 211.715131 204.875982 209.655723 202.275299 C 194.317744 182.654765 186.264536 157.494315 188.062676 132.62625 C 188.692793 124.147101 190.583146 115.92956 193.595414 108.173678 C 192.534973 135.473151 203.262337 163.895995 230.587915 173.298463 C 230.910658 173.406184 231.202663 173.483127 231.510038 173.529293 C 235.336848 183.116425 240.900324 192.134176 247.155391 200.105499 C 251.059045 205.076034 255.07028 210.077347 260.2188 213.124301 Z M 260.2188 213.124301 " stroke="#c4af91" stroke-width="1" stroke-opacity="1" stroke-miterlimit="10"/><path fill="#efb670" d="M 241.164062 181.222656 C 238.621094 178.441406 235.917969 175.808594 233.066406 173.339844 C 235.613281 171.902344 238 170.175781 240.175781 168.1875 C 241.148438 172.480469 241.476562 176.871094 241.164062 181.222656 Z M 241.164062 181.222656 " fill-opacity="1" fill-rule="nonzero"/><g clip-path="url(#09d50c1ea9)"><path stroke-linecap="butt" transform="matrix(0.254169, 0, 0, 0.25384, 132.130001, 125.123267)" fill="none" stroke-linejoin="miter" d="M 428.982677 221.003292 C 418.977643 210.04657 408.342491 199.674617 397.123328 189.948987 C 407.143731 184.285962 416.534017 177.484177 425.094392 169.651352 C 428.921202 186.563483 430.212175 203.860331 428.982677 221.003292 Z M 428.982677 221.003292 " stroke="#efb670" stroke-width="1" stroke-opacity="1" stroke-miterlimit="10"/></g><path fill="#efb670" d="M 211.859375 223.738281 C 206.855469 228.859375 202.691406 234.785156 200.292969 241.5625 C 196.289062 241.492188 192.292969 240.695312 188.5625 239.144531 C 191.304688 231.445312 193.367188 223.527344 194.738281 215.484375 C 199.523438 217.394531 204.847656 217.679688 209.828125 216.300781 C 210.433594 218.800781 211.109375 221.28125 211.859375 223.738281 Z M 211.859375 223.738281 " fill-opacity="1" fill-rule="nonzero"/><g clip-path="url(#95ebaea96a)"><path stroke-linecap="butt" transform="matrix(0.254169, 0, 0, 0.25384, 132.130001, 125.123267)" fill="none" stroke-linejoin="miter" d="M 313.686565 388.493405 C 293.999239 408.667931 277.616188 432.012519 268.179796 458.711834 C 252.426861 458.434839 236.704664 455.295553 222.02754 449.186257 C 232.816379 418.85522 240.931061 387.662418 246.325481 355.977178 C 265.152158 363.50223 286.099719 364.625602 305.694833 359.193407 C 308.076984 369.042146 310.735772 378.813941 313.686565 388.493405 Z M 313.686565 388.493405 " stroke="#efb670" stroke-width="1" stroke-opacity="1" stroke-miterlimit="10"/></g><path stroke-linecap="butt" transform="matrix(0.254169, 0, 0, 0.25384, 132.130001, 125.123267)" fill-opacity="1" fill="#efb670" fill-rule="nonzero" stroke-linejoin="miter" d="M 173.293339 264.368519 C 161.474796 269.154391 150.163421 275.155966 139.543638 282.327079 C 126.94129 262.814265 122.069407 239.023406 125.604212 216.371307 C 134.318274 238.115475 151.777136 254.612112 173.293339 264.368519 Z M 173.293339 264.368519 " stroke="#efb670" stroke-width="1" stroke-opacity="1" stroke-miterlimit="10"/><path fill="#efb670" d="M 217.917969 150.988281 C 214.9375 152.488281 211.722656 153.472656 208.394531 153.855469 C 208.34375 153.863281 208.292969 153.871094 208.246094 153.878906 C 208.113281 153.695312 207.980469 153.511719 207.835938 153.332031 C 206.117188 151.148438 203.691406 150.066406 200.953125 149.964844 C 200.894531 149.957031 200.832031 149.953125 200.765625 149.957031 C 200.699219 149.953125 200.640625 149.957031 200.578125 149.964844 C 195.554688 150.199219 191.222656 154.367188 190.039062 159.136719 C 189.457031 161.46875 189.515625 163.804688 190.007812 166.066406 C 183.257812 162.566406 182.796875 152.554688 185.167969 146.175781 C 185.171875 146.160156 185.175781 146.148438 185.183594 146.132812 C 186.136719 145 187.207031 143.957031 188.371094 143.015625 C 194.453125 138.425781 202.585938 137.441406 209.429688 141.042969 C 213.597656 143.238281 216.347656 146.839844 217.917969 150.988281 Z M 217.917969 150.988281 " fill-opacity="1" fill-rule="nonzero"/><g clip-path="url(#46593ee245)"><path stroke-linecap="butt" transform="matrix(0.254169, 0, 0, 0.25384, 132.130001, 125.123267)" fill="none" stroke-linejoin="miter" d="M 337.523445 101.895107 C 325.797114 107.804351 313.14866 111.682291 300.054514 113.19038 C 299.85472 113.221157 299.654927 113.251934 299.470503 113.282711 C 298.947966 112.559445 298.42543 111.836178 297.856787 111.1283 C 291.094552 102.526042 281.550579 98.263385 270.777109 97.86328 C 270.546578 97.832503 270.300678 97.817114 270.03941 97.832503 C 269.778142 97.817114 269.547611 97.832503 269.301712 97.86328 C 249.537542 98.786599 232.493636 115.206293 227.836915 133.99584 C 225.546976 143.182867 225.777507 152.385282 227.713965 161.295313 C 201.156823 147.507079 199.343314 108.065958 208.672125 82.936285 C 208.687494 82.874731 208.702862 82.828565 208.7336 82.76701 C 212.483567 78.3043 216.694595 74.19553 221.274473 70.486864 C 245.203564 52.405195 277.201232 48.527254 304.127224 62.715593 C 320.525644 71.364017 331.345221 85.552356 337.523445 101.895107 Z M 337.523445 101.895107 " stroke="#efb670" stroke-width="1" stroke-opacity="1" stroke-miterlimit="10"/></g><path fill="#938682" d="M 240.792969 184.609375 C 240.4375 187.007812 239.890625 189.382812 239.144531 191.714844 C 229.1875 186.988281 217.78125 185.8125 207.054688 188.484375 C 206.535156 188.613281 206.101562 189.164062 206.125 189.707031 C 206.433594 197.84375 207.488281 205.914062 209.253906 213.828125 C 204.644531 215.125 199.554688 214.890625 195.160156 212.933594 C 195.15625 212.929688 195.152344 212.929688 195.144531 212.929688 C 196.292969 205.371094 196.832031 197.722656 196.746094 190.066406 C 196.742188 189.738281 196.613281 189.445312 196.40625 189.222656 C 198.835938 186.691406 200.554688 183.542969 200.777344 179.976562 C 200.820312 179.980469 200.855469 179.984375 200.894531 179.984375 C 203.53125 180.050781 205.136719 178.324219 206.503906 176.304688 C 209.714844 171.554688 211.574219 165.839844 210.714844 160.078125 C 210.519531 158.769531 210.132812 157.460938 209.582031 156.234375 C 212.757812 155.753906 215.808594 154.828125 218.699219 153.429688 C 219.328125 155.84375 219.605469 158.375 219.570312 160.882812 C 219.496094 166.269531 218.167969 171.523438 216.667969 176.664062 C 216.457031 177.382812 217.058594 178.363281 217.890625 178.269531 C 222.34375 177.757812 226.65625 176.507812 230.652344 174.597656 C 234.273438 177.6875 237.660156 181.027344 240.792969 184.609375 Z M 240.792969 184.609375 " fill-opacity="1" fill-rule="nonzero"/><g clip-path="url(#143d48f47d)"><path stroke-linecap="butt" transform="matrix(0.254169, 0, 0, 0.25384, 132.130001, 125.123267)" fill="none" stroke-linejoin="miter" d="M 427.522649 234.345255 C 426.124096 243.793889 423.972476 253.15019 421.037051 262.337217 C 381.862192 243.716945 336.98554 239.08496 294.783044 249.6108 C 292.739005 250.118625 291.033077 252.288426 291.125289 254.427449 C 292.339418 286.482016 296.488972 318.274975 303.435631 349.452389 C 285.300546 354.561422 265.275108 353.638103 247.985302 345.928387 C 247.969933 345.912998 247.954565 345.912998 247.923827 345.912998 C 252.44223 316.135952 254.563113 286.004967 254.225001 255.843205 C 254.209632 254.550558 253.702465 253.396409 252.887923 252.519256 C 262.447264 242.547408 269.2095 230.144152 270.085516 216.094311 C 270.254572 216.109699 270.392891 216.125088 270.546578 216.125088 C 280.920462 216.386695 287.237004 209.58491 292.616055 201.628976 C 305.24914 182.916372 312.564649 160.402771 309.183531 137.704506 C 308.415096 132.549307 306.893593 127.394107 304.726604 122.56207 C 317.22137 120.669266 329.224338 117.022154 340.597188 111.513016 C 343.071552 121.023205 344.16273 130.995053 344.024412 140.874569 C 343.732406 162.095523 338.507043 182.793263 332.605456 203.044732 C 331.775545 205.876244 334.142327 209.738797 337.415864 209.369469 C 354.936201 207.353555 371.903264 202.429186 387.625461 194.904134 C 401.872261 207.076559 415.196938 220.233859 427.522649 234.345255 Z M 427.522649 234.345255 " stroke="#938682" stroke-width="1" stroke-opacity="1" stroke-miterlimit="10"/></g><g clip-path="url(#4b43d4a8c9)"><path fill="#4c433f" d="M 242.097656 165.414062 C 241.847656 164.5 240.648438 164.167969 239.976562 164.855469 C 234.515625 170.4375 227.34375 174.207031 219.644531 175.484375 C 222.0625 166.726562 223.566406 157.3125 219.78125 148.71875 C 216.40625 141.050781 208.757812 136.332031 200.421875 136.292969 C 195.507812 136.265625 190.800781 137.960938 186.921875 140.949219 C 186.878906 140.976562 186.84375 141.011719 186.808594 141.046875 C 186.757812 141.078125 186.710938 141.109375 186.664062 141.144531 C 181.269531 145.464844 177.894531 151.902344 177.390625 158.789062 C 176.933594 165.027344 178.808594 171.210938 182.253906 176.371094 C 176.519531 176.765625 170.75 174.570312 166.742188 170.410156 C 166.171875 169.820312 165.15625 169.976562 164.746094 170.667969 C 159.570312 179.417969 160.15625 191 166.179688 199.195312 C 166.554688 199.707031 167.3125 200.082031 167.917969 199.652344 C 175.28125 194.394531 184.058594 191.511719 193.070312 191.320312 C 193.355469 191.421875 193.675781 191.433594 193.980469 191.316406 L 194.210938 191.316406 C 194.25 207.734375 191.375 224.054688 185.746094 239.488281 C 185.570312 239.96875 185.855469 240.703125 186.332031 240.917969 C 196.78125 245.6875 209.25 245.054688 219.105469 239.101562 C 219.738281 238.71875 219.839844 238.003906 219.558594 237.367188 C 213.117188 222.636719 209.441406 206.753906 208.707031 190.699219 C 218.96875 188.390625 229.882812 189.765625 239.246094 194.582031 C 240.015625 194.980469 240.828125 194.621094 241.113281 193.824219 C 244.363281 184.714844 244.695312 174.730469 242.097656 165.414062 Z M 185.167969 146.175781 C 185.171875 146.160156 185.175781 146.148438 185.183594 146.132812 C 186.136719 145 187.207031 143.957031 188.371094 143.015625 C 194.453125 138.425781 202.585938 137.441406 209.429688 141.042969 C 213.597656 143.238281 216.347656 146.839844 217.917969 150.988281 C 214.9375 152.488281 211.722656 153.472656 208.394531 153.855469 C 208.34375 153.863281 208.292969 153.871094 208.246094 153.878906 C 208.113281 153.695312 207.980469 153.511719 207.835938 153.332031 C 206.117188 151.148438 203.691406 150.066406 200.953125 149.964844 C 200.894531 149.957031 200.832031 149.953125 200.765625 149.957031 C 200.699219 149.953125 200.640625 149.957031 200.578125 149.964844 C 195.554688 150.199219 191.222656 154.367188 190.039062 159.136719 C 189.457031 161.46875 189.515625 163.804688 190.007812 166.066406 C 183.257812 162.566406 182.796875 152.554688 185.167969 146.175781 Z M 206.003906 172.214844 C 205.492188 173.183594 204.917969 174.117188 204.304688 175.023438 C 203.738281 175.863281 203.195312 176.777344 202.226562 177.195312 C 200.179688 178.085938 198.761719 176.554688 197.550781 175.113281 C 194.433594 171.410156 191.882812 166.726562 192.191406 161.746094 C 192.472656 157.28125 196.007812 152.621094 200.765625 152.496094 C 204.691406 152.574219 206.992188 155.640625 207.941406 159.1875 C 209.101562 163.5 208.050781 168.34375 206.003906 172.214844 Z M 167.597656 196.789062 C 164.394531 191.835938 163.15625 185.796875 164.054688 180.046875 C 166.269531 185.566406 170.707031 189.753906 176.175781 192.230469 C 173.171875 193.445312 170.296875 194.96875 167.597656 196.789062 Z M 193.183594 188.78125 C 188.570312 188.855469 183.988281 189.605469 179.609375 190.996094 C 179.480469 190.871094 179.316406 190.765625 179.117188 190.695312 C 172.152344 188.25 166.800781 182.898438 165.375 175.535156 C 165.359375 175.457031 165.339844 175.386719 165.3125 175.324219 C 165.570312 174.664062 165.851562 174.011719 166.167969 173.375 C 171.226562 177.851562 178.171875 179.742188 184.855469 178.585938 C 185.910156 178.40625 185.941406 177.128906 185.417969 176.46875 C 181.519531 171.488281 179.472656 165.101562 179.929688 158.789062 C 180.089844 156.636719 180.570312 154.550781 181.335938 152.582031 C 181.066406 159.511719 183.792969 166.726562 190.738281 169.113281 C 190.820312 169.140625 190.894531 169.160156 190.972656 169.171875 C 191.945312 171.605469 193.359375 173.894531 194.949219 175.917969 C 195.941406 177.179688 196.960938 178.449219 198.269531 179.222656 C 198.265625 179.265625 198.261719 179.304688 198.261719 179.347656 C 198.214844 183.191406 196 186.355469 193.183594 188.78125 Z M 216.855469 237.46875 C 212.601562 239.835938 207.839844 241.195312 203.011719 241.503906 C 205.144531 235.871094 208.625 230.886719 212.730469 226.5 C 213.945312 230.207031 215.320312 233.867188 216.855469 237.46875 Z M 211.859375 223.738281 C 206.855469 228.859375 202.691406 234.785156 200.292969 241.5625 C 196.289062 241.492188 192.292969 240.695312 188.5625 239.144531 C 191.304688 231.445312 193.367188 223.527344 194.738281 215.484375 C 199.523438 217.394531 204.847656 217.679688 209.828125 216.300781 C 210.433594 218.800781 211.109375 221.28125 211.859375 223.738281 Z M 239.144531 191.714844 C 229.1875 186.988281 217.78125 185.8125 207.054688 188.484375 C 206.535156 188.613281 206.101562 189.164062 206.125 189.707031 C 206.433594 197.84375 207.488281 205.914062 209.253906 213.828125 C 204.644531 215.125 199.554688 214.890625 195.160156 212.933594 C 195.15625 212.929688 195.152344 212.929688 195.144531 212.929688 C 196.292969 205.371094 196.832031 197.722656 196.746094 190.066406 C 196.742188 189.738281 196.613281 189.445312 196.40625 189.222656 C 198.835938 186.691406 200.554688 183.542969 200.777344 179.976562 C 200.820312 179.980469 200.855469 179.984375 200.894531 179.984375 C 203.53125 180.050781 205.136719 178.324219 206.503906 176.304688 C 209.714844 171.554688 211.574219 165.839844 210.714844 160.078125 C 210.519531 158.769531 210.132812 157.460938 209.582031 156.234375 C 212.757812 155.753906 215.808594 154.828125 218.699219 153.429688 C 219.328125 155.84375 219.605469 158.375 219.570312 160.882812 C 219.496094 166.269531 218.167969 171.523438 216.667969 176.664062 C 216.457031 177.382812 217.058594 178.363281 217.890625 178.269531 C 222.34375 177.757812 226.65625 176.507812 230.652344 174.597656 C 234.273438 177.6875 237.660156 181.027344 240.792969 184.609375 C 240.4375 187.007812 239.890625 189.382812 239.144531 191.714844 Z M 241.164062 181.222656 C 238.621094 178.441406 235.917969 175.808594 233.066406 173.339844 C 235.613281 171.902344 238 170.175781 240.175781 168.1875 C 241.148438 172.480469 241.476562 176.871094 241.164062 181.222656 Z M 241.164062 181.222656 " fill-opacity="1" fill-rule="nonzero"/></g><g clip-path="url(#f7c4a5f000)"><path fill="#4c433f" d="M 166.625 163.4375 C 167.714844 164.660156 169.503906 162.859375 168.421875 161.644531 C 166.34375 159.316406 164.269531 156.992188 162.191406 154.664062 C 161.703125 154.113281 160.90625 154.253906 160.394531 154.664062 C 158.898438 155.875 157.601562 157.285156 156.519531 158.855469 C 155.402344 156.8125 154.285156 154.769531 153.171875 152.726562 C 152.386719 151.292969 150.191406 152.570312 150.976562 154.007812 C 152.4375 156.683594 153.898438 159.355469 155.363281 162.03125 C 155.8125 162.855469 157.113281 162.863281 157.558594 162.03125 C 158.511719 160.253906 159.726562 158.699219 161.183594 157.34375 C 162.996094 159.375 164.8125 161.40625 166.625 163.441406 Z M 166.625 163.4375 " fill-opacity="1" fill-rule="nonzero"/></g><path fill="#4c433f" d="M 228.894531 211.597656 C 228.804688 210.714844 228.15625 210.234375 227.285156 210.371094 C 224.765625 210.773438 222.25 211.175781 219.730469 211.574219 C 220.046875 209.335938 220.363281 207.097656 220.683594 204.855469 C 220.910156 203.261719 218.464844 202.570312 218.234375 204.179688 C 217.828125 207.039062 217.425781 209.894531 217.015625 212.75 C 216.875 213.757812 217.554688 214.476562 218.582031 214.3125 C 221.222656 213.890625 223.859375 213.46875 226.5 213.050781 C 226.800781 216.054688 227.097656 219.0625 227.398438 222.066406 C 227.558594 223.675781 230.101562 223.695312 229.9375 222.066406 C 229.589844 218.578125 229.246094 215.085938 228.898438 211.59375 Z M 228.894531 211.597656 " fill-opacity="1" fill-rule="nonzero"/><path fill="#4c433f" d="M 161.9375 148.320312 C 162.117188 149.148438 163.117188 149.453125 163.800781 149.082031 C 164.675781 148.601562 165.546875 148.125 166.421875 147.648438 C 166.941406 149.199219 167.457031 150.75 167.976562 152.296875 C 168.492188 153.835938 170.945312 153.175781 170.425781 151.621094 L 168.371094 145.46875 C 168.105469 144.679688 167.25 144.300781 166.503906 144.710938 C 165.683594 145.160156 164.859375 145.609375 164.039062 146.058594 C 163.742188 144.71875 163.449219 143.375 163.15625 142.039062 C 162.804688 140.445312 160.355469 141.121094 160.707031 142.714844 C 161.117188 144.582031 161.527344 146.453125 161.9375 148.320312 Z M 161.9375 148.320312 " fill-opacity="1" fill-rule="nonzero"/><path fill="#4c433f" d="M 234.429688 200.925781 C 234.085938 200.222656 232.945312 200.078125 232.433594 200.667969 C 231.589844 201.652344 230.746094 202.632812 229.902344 203.617188 C 229.089844 202.019531 228.28125 200.425781 227.46875 198.832031 C 226.730469 197.375 224.53125 198.660156 225.273438 200.113281 C 226.359375 202.25 227.445312 204.382812 228.53125 206.515625 C 228.882812 207.210938 230.011719 207.375 230.527344 206.773438 L 233.039062 203.851562 C 233.707031 205.234375 234.382812 206.613281 235.054688 207.996094 C 235.765625 209.464844 237.960938 208.179688 237.246094 206.714844 C 236.304688 204.785156 235.367188 202.855469 234.429688 200.925781 Z M 234.429688 200.925781 " fill-opacity="1" fill-rule="nonzero"/><g fill="#c39126" fill-opacity="1"><g transform="translate(48.077188, 239.516454)"><g><path d="M 19.484375 0.167969 L 27.492188 0.0546875 L 28.667969 -0.449219 L 29.285156 -1.625 L 29.285156 -7.28125 L 28.667969 -8.398438 L 27.492188 -8.902344 L 26.207031 -8.792969 L 25.140625 -8.960938 L 22.285156 -9.015625 L 20.4375 -8.792969 L 19.316406 -8.902344 L 18.085938 -8.847656 L 17.023438 -9.015625 L 15.789062 -8.902344 L 14.613281 -9.464844 L 14.167969 -10.472656 L 14.167969 -14 L 14.671875 -15.175781 L 15.679688 -15.789062 L 17.359375 -15.847656 L 19.148438 -15.679688 L 21.277344 -15.789062 L 23.574219 -15.734375 L 24.695312 -15.847656 L 25.980469 -15.789062 L 27.101562 -16.238281 L 27.492188 -17.359375 L 27.660156 -22.398438 L 27.101562 -23.964844 L 25.8125 -24.695312 L 22.511719 -24.695312 L 21.335938 -24.582031 L 18.980469 -24.75 L 15.734375 -24.636719 L 14.558594 -25.140625 L 14.109375 -26.878906 L 14.109375 -28.613281 L 14.613281 -29.675781 L 15.847656 -30.125 L 16.910156 -30.070312 L 17.972656 -30.292969 L 25.980469 -30.179688 L 27.046875 -30.238281 L 28.222656 -30.910156 L 28.78125 -31.917969 L 28.726562 -33.035156 L 28.78125 -34.15625 L 28.667969 -37.515625 L 28.164062 -38.582031 L 27.046875 -39.027344 L 25.871094 -39.027344 L 24.863281 -39.253906 L 20.328125 -39.195312 L 19.09375 -39.085938 L 17.972656 -39.195312 L 17.023438 -39.140625 L 15.902344 -39.253906 L 11.3125 -39.140625 L 10.191406 -39.308594 L 9.128906 -39.085938 L 8.121094 -39.195312 L 7 -39.085938 L 5.878906 -39.140625 L 4.703125 -38.691406 L 4.085938 -37.515625 L 4.199219 -35.390625 L 4.03125 -33.09375 L 4.199219 -31.859375 L 4.085938 -26.375 L 4.253906 -25.199219 L 4.144531 -24.132812 L 4.085938 -19.542969 L 4.253906 -18.535156 L 4.199219 -9.464844 L 4.085938 -8.398438 L 4.253906 -7.28125 L 4.085938 -3.414062 L 4.199219 -2.183594 L 4.648438 -0.671875 L 6.328125 0.0546875 L 10.359375 0.113281 L 11.589844 0 L 12.597656 0.0546875 L 14.894531 -0.113281 L 15.957031 0.113281 L 17.246094 0.167969 L 18.367188 0.0546875 Z M 19.484375 0.167969 "/></g></g></g><g fill="#c39126" fill-opacity="1"><g transform="translate(77.080709, 239.516454)"><g><path d="M 20.496094 0.671875 L 21.949219 0.726562 L 24.972656 0.449219 L 26.09375 0.222656 L 27.15625 0.167969 L 28.109375 -0.113281 L 32.253906 -1.902344 L 33.035156 -2.574219 L 34.886719 -3.75 L 36.507812 -5.488281 L 38.300781 -8.121094 L 39.589844 -10.695312 L 40.316406 -13.101562 L 40.371094 -14.167969 L 40.707031 -15.285156 L 40.933594 -19.542969 L 40.765625 -20.664062 L 40.09375 -21.78125 L 38.46875 -22.285156 L 24.414062 -22.285156 L 22.679688 -21.671875 L 22.175781 -20.605469 L 22.0625 -16.40625 L 22.285156 -15.34375 L 22.621094 -14.390625 L 23.6875 -13.886719 L 24.75 -13.886719 L 25.757812 -13.773438 L 29.117188 -13.941406 L 29.902344 -13.328125 L 30.125 -12.375 L 29.675781 -11.480469 L 28.054688 -9.910156 L 27.15625 -9.464844 L 25.03125 -8.792969 L 23.910156 -8.625 L 22.285156 -8.566406 L 20.550781 -8.679688 L 19.542969 -8.902344 L 18.535156 -9.296875 L 16.519531 -10.359375 L 14.839844 -11.703125 L 14.222656 -12.65625 L 13.773438 -13.605469 L 13.160156 -14.613281 L 12.765625 -15.679688 L 12.429688 -21.277344 L 13.046875 -23.292969 L 13.269531 -24.414062 L 14.109375 -26.484375 L 15.566406 -28.054688 L 17.414062 -29.339844 L 18.367188 -29.789062 L 20.550781 -30.515625 L 22.117188 -30.574219 L 25.03125 -30.238281 L 26.09375 -29.957031 L 28.894531 -28.222656 L 29.453125 -27.324219 L 30.683594 -26.429688 L 31.917969 -25.871094 L 37.40625 -25.871094 L 38.46875 -25.980469 L 39.421875 -26.316406 L 39.8125 -27.550781 L 38.019531 -31.691406 L 37.238281 -32.476562 L 35.835938 -34.269531 L 34.214844 -35.894531 L 30.40625 -38.246094 L 29.171875 -38.582031 L 28.277344 -38.972656 L 27.15625 -39.140625 L 25.925781 -39.476562 L 20.382812 -39.757812 L 16.964844 -39.195312 L 12.710938 -37.683594 L 11.703125 -37.179688 L 8.902344 -35.277344 L 7.222656 -33.710938 L 6.496094 -32.757812 L 5.933594 -31.859375 L 5.09375 -31.078125 L 4.480469 -30.011719 L 2.742188 -25.757812 L 2.6875 -24.75 L 2.070312 -22.285156 L 2.183594 -19.484375 L 2.070312 -17.917969 L 2.128906 -16.742188 L 3.078125 -12.429688 L 4.253906 -9.351562 L 4.871094 -8.289062 L 6.886719 -5.765625 L 8.457031 -4.144531 L 12.039062 -1.734375 L 13.046875 -1.230469 L 16.183594 -0.113281 L 19.316406 0.558594 Z M 20.496094 0.671875 "/></g></g></g><g fill="#c39126" fill-opacity="1"><g transform="translate(116.890725, 239.516454)"><g><path d="M 12.878906 -1.566406 L 13.496094 -0.617188 L 14.558594 -0.0546875 L 16.574219 0.0546875 L 17.695312 -0.0546875 L 18.871094 0 L 20.4375 -0.0546875 L 22.117188 -0.617188 L 22.679688 -1.734375 L 22.679688 -2.6875 L 22.566406 -3.863281 L 22.621094 -4.925781 L 22.566406 -5.933594 L 22.847656 -9.351562 L 22.679688 -10.527344 L 22.847656 -13.773438 L 22.621094 -14.78125 L 22.902344 -16.40625 L 24.863281 -19.820312 L 25.308594 -20.886719 L 25.925781 -21.839844 L 27.324219 -23.6875 L 33.765625 -34.324219 L 34.4375 -35.164062 L 34.828125 -36.171875 L 35.613281 -37.515625 L 35.445312 -38.859375 L 34.382812 -39.308594 L 33.261719 -39.140625 L 31.078125 -39.308594 L 29.902344 -39.140625 L 27.773438 -39.140625 L 26.710938 -39.253906 L 25.308594 -38.691406 L 24.132812 -37.628906 L 23.183594 -35.726562 L 22.453125 -34.660156 L 22.117188 -33.597656 L 20.832031 -31.75 L 19.988281 -29.734375 L 18.140625 -26.710938 L 17.359375 -26.597656 L 16.070312 -28.613281 L 15.566406 -29.621094 L 15.230469 -30.742188 L 12.429688 -35.667969 L 11.816406 -36.621094 L 11.367188 -37.742188 L 10.136719 -38.636719 L 8.734375 -39.253906 L 1.34375 -39.140625 L 0.113281 -38.804688 L 0 -37.574219 L 0.558594 -36.230469 L 6.605469 -26.652344 L 7.054688 -25.703125 L 12.039062 -17.863281 L 12.488281 -16.40625 L 12.765625 -14.78125 L 12.710938 -10.359375 L 12.824219 -9.238281 L 12.878906 -8.175781 L 12.765625 -7.167969 L 12.710938 -5.039062 L 12.992188 -2.742188 Z M 12.878906 -1.566406 "/></g></g></g><g fill="#c39126" fill-opacity="1"><g transform="translate(149.421755, 239.516454)"><g><path d="M 4.144531 -1.734375 L 4.589844 -0.558594 L 5.765625 -0.113281 L 6.886719 0 L 10.191406 -0.0546875 L 11.421875 0.0546875 L 12.597656 0.0546875 L 13.71875 -0.558594 L 14.222656 -1.734375 L 14.277344 -3.976562 L 14.167969 -5.039062 L 14.335938 -6.046875 L 14.222656 -7.28125 L 14.222656 -8.457031 L 14.613281 -9.40625 L 16.125 -9.96875 L 17.359375 -10.136719 L 19.039062 -9.96875 L 21.949219 -10.023438 L 24.246094 -10.472656 L 27.492188 -11.421875 L 29.398438 -12.597656 L 30.292969 -13.269531 L 31.972656 -14.894531 L 33.765625 -17.582031 L 34.269531 -18.589844 L 34.660156 -19.597656 L 35.164062 -21.894531 L 35.277344 -22.902344 L 35.332031 -26.207031 L 34.324219 -30.574219 L 33.203125 -32.589844 L 32.476562 -33.539062 L 31.75 -34.324219 L 31.132812 -35.164062 L 30.179688 -36.003906 L 28.5 -37.125 L 26.484375 -38.1875 L 25.308594 -38.414062 L 24.191406 -38.859375 L 23.183594 -39.085938 L 6.4375 -39.140625 L 4.925781 -38.636719 L 4.367188 -37.574219 L 4.253906 -36.398438 L 4.253906 -34.101562 L 4.085938 -33.09375 L 4.085938 -32.027344 L 4.253906 -30.851562 L 4.253906 -25.140625 L 4.144531 -24.023438 L 4.253906 -23.015625 L 4.144531 -21.78125 L 4.3125 -19.484375 L 4.085938 -17.972656 L 4.253906 -16.292969 L 4.144531 -15.230469 L 4.144531 -12.878906 L 4.3125 -11.816406 L 4.144531 -9.574219 L 4.3125 -6.046875 L 4.03125 -4.925781 L 4.253906 -3.863281 L 4.085938 -2.800781 Z M 16.015625 -19.09375 L 14.949219 -19.597656 L 14.277344 -20.71875 L 14.167969 -28.5 L 14.839844 -29.734375 L 15.957031 -30.179688 L 17.359375 -30.292969 L 21.839844 -30.070312 L 22.789062 -29.566406 L 23.628906 -28.949219 L 24.527344 -28.109375 L 25.085938 -27.15625 L 25.589844 -24.527344 L 24.972656 -21.949219 L 23.6875 -20.382812 L 22.789062 -19.765625 L 21.894531 -19.261719 L 17.300781 -18.980469 Z M 16.015625 -19.09375 "/></g></g></g><g fill="#c39126" fill-opacity="1"><g transform="translate(183.194366, 239.516454)"><g/></g></g><g fill="#c39126" fill-opacity="1"><g transform="translate(195.288246, 239.516454)"><g/></g></g><g fill="#c39126" fill-opacity="1"><g transform="translate(207.382125, 239.516454)"><g/></g></g><g fill="#c39126" fill-opacity="1"><g transform="translate(219.487336, 239.516454)"><g><path d="M 20.941406 0.671875 L 24.078125 0.617188 L 27.4375 0.167969 L 31.636719 -1.230469 L 33.484375 -2.238281 L 34.324219 -2.910156 L 35.390625 -3.414062 L 36.957031 -4.757812 L 37.683594 -5.765625 L 38.46875 -6.550781 L 40.933594 -10.304688 L 41.773438 -12.429688 L 42.21875 -14.558594 L 42.277344 -15.566406 L 42.554688 -16.6875 L 42.613281 -17.863281 L 42.835938 -19.484375 L 42.667969 -22.285156 L 42.277344 -24.582031 L 40.875 -28.78125 L 39.8125 -30.851562 L 38.582031 -32.53125 L 37.011719 -34.269531 L 35.390625 -35.667969 L 34.101562 -36.566406 L 32.421875 -37.292969 L 31.582031 -37.910156 L 27.269531 -39.253906 L 24.023438 -39.8125 L 22.511719 -39.867188 L 16.574219 -39.027344 L 12.375 -37.460938 L 11.535156 -36.84375 L 10.527344 -36.339844 L 8.625 -34.941406 L 5.878906 -31.75 L 4.144531 -28.78125 L 3.304688 -26.652344 L 2.351562 -22.34375 L 2.183594 -17.804688 L 2.351562 -16.628906 L 2.632812 -15.621094 L 2.742188 -14.558594 L 3.246094 -12.429688 L 5.824219 -7.335938 L 6.496094 -6.664062 L 7.222656 -5.765625 L 8.0625 -4.984375 L 8.679688 -4.253906 L 10.527344 -2.800781 L 14.894531 -0.558594 L 16.519531 0 L 17.75 0.113281 L 19.765625 0.558594 Z M 24.078125 -9.238281 L 21 -9.238281 L 19.765625 -9.40625 L 17.75 -10.246094 L 16.855469 -10.75 L 15.34375 -11.984375 L 14.613281 -12.765625 L 13.832031 -13.832031 L 13.550781 -14.726562 L 13.046875 -15.734375 L 12.597656 -17.804688 L 12.597656 -21.222656 L 12.878906 -22.230469 L 13.046875 -23.292969 L 13.496094 -24.300781 L 13.832031 -25.308594 L 15.175781 -27.101562 L 17.972656 -29.003906 L 18.703125 -29.285156 L 20.886719 -29.84375 L 22.453125 -29.957031 L 25.140625 -29.621094 L 26.148438 -29.398438 L 27.15625 -28.949219 L 28.894531 -27.71875 L 31.078125 -25.421875 L 31.75 -23.292969 L 32.253906 -22.230469 L 32.421875 -21.222656 L 32.308594 -17.804688 L 31.859375 -15.734375 L 31.46875 -14.726562 L 30.851562 -13.71875 L 30.515625 -12.878906 L 29.734375 -11.984375 L 27.046875 -10.136719 L 26.039062 -9.855469 L 25.199219 -9.464844 Z M 24.078125 -9.238281 "/></g></g></g><g fill="#c39126" fill-opacity="1"><g transform="translate(261.313069, 239.516454)"><g><path d="M 16.519531 0.449219 L 19.207031 0.671875 L 22.007812 0.558594 L 24.246094 0.0546875 L 25.421875 -0.390625 L 26.542969 -0.671875 L 27.4375 -1.230469 L 28.445312 -1.679688 L 29.339844 -2.296875 L 31.859375 -4.535156 L 32.476562 -5.542969 L 33.203125 -6.382812 L 33.539062 -7.503906 L 34.101562 -8.457031 L 34.492188 -9.519531 L 34.886719 -15.175781 L 34.71875 -19.710938 L 34.941406 -20.886719 L 34.941406 -21.894531 L 34.71875 -23.015625 L 34.660156 -24.078125 L 34.773438 -25.253906 L 34.71875 -26.820312 L 34.828125 -28.558594 L 34.773438 -29.789062 L 34.941406 -30.851562 L 34.773438 -31.972656 L 34.828125 -36.507812 L 34.660156 -37.460938 L 34.214844 -38.691406 L 32.421875 -39.195312 L 27.15625 -39.253906 L 25.925781 -38.75 L 25.367188 -37.515625 L 25.421875 -32.027344 L 25.308594 -30.910156 L 25.367188 -28.726562 L 25.253906 -27.550781 L 25.421875 -26.375 L 25.253906 -21.949219 L 25.476562 -20.941406 L 25.367188 -19.710938 L 25.421875 -17.695312 L 25.308594 -16.574219 L 25.367188 -13.71875 L 25.140625 -11.925781 L 24.636719 -10.863281 L 24.132812 -10.078125 L 23.238281 -9.238281 L 21 -8.511719 L 19.484375 -8.398438 L 17.636719 -8.511719 L 16.628906 -8.792969 L 15.398438 -9.40625 L 14.558594 -10.136719 L 13.886719 -10.917969 L 13.550781 -12.09375 L 13.4375 -21.949219 L 13.269531 -23.070312 L 13.214844 -26.542969 L 13.328125 -27.550781 L 13.328125 -32.027344 L 13.160156 -33.652344 L 13.160156 -34.71875 L 13.4375 -36.398438 L 13.4375 -37.574219 L 12.824219 -38.636719 L 11.480469 -39.140625 L 5.597656 -39.195312 L 4.480469 -38.582031 L 3.976562 -37.460938 L 3.976562 -34.101562 L 3.695312 -33.148438 L 3.917969 -30.796875 L 3.75 -28.667969 L 4.03125 -25.308594 L 3.808594 -24.246094 L 3.976562 -23.015625 L 3.863281 -21.949219 L 3.917969 -20.832031 L 3.808594 -19.765625 L 3.976562 -17.527344 L 3.917969 -13.496094 L 4.085938 -11.871094 L 4.085938 -10.695312 L 4.421875 -9.574219 L 4.589844 -8.511719 L 4.925781 -7.449219 L 6.046875 -5.542969 L 7.558594 -3.695312 L 8.289062 -2.96875 L 10.191406 -1.847656 L 11.03125 -1.175781 L 12.09375 -0.726562 L 13.382812 -0.335938 L 14.222656 0.113281 L 15.453125 0.167969 Z M 16.519531 0.449219 "/></g></g></g><g fill="#c39126" fill-opacity="1"><g transform="translate(296.86768, 239.516454)"><g><path d="M 4.3125 -1.792969 L 4.703125 -0.558594 L 5.824219 0 L 6.886719 0.0546875 L 9.183594 -0.113281 L 10.359375 0 L 12.039062 0 L 13.773438 -0.558594 L 14.167969 -1.625 L 14.277344 -2.800781 L 14.054688 -3.976562 L 14.222656 -6.382812 L 14.109375 -9.855469 L 14.613281 -10.976562 L 15.734375 -11.535156 L 16.742188 -11.535156 L 17.75 -11.589844 L 19.148438 -11.144531 L 20.046875 -10.191406 L 21.503906 -8.230469 L 21.894531 -7.167969 L 23.460938 -4.367188 L 24.191406 -3.304688 L 24.695312 -2.351562 L 25.367188 -1.457031 L 26.484375 -0.449219 L 27.886719 -0.113281 L 29.902344 0 L 31.132812 -0.113281 L 32.253906 0 L 34.492188 0 L 35.726562 -0.113281 L 36.902344 -0.390625 L 37.125 -1.566406 L 36.398438 -2.96875 L 34.605469 -5.710938 L 34.101562 -6.664062 L 33.429688 -7.671875 L 32.867188 -8.679688 L 32.140625 -9.574219 L 30.460938 -12.488281 L 30.292969 -13.832031 L 30.910156 -15.007812 L 32.476562 -16.519531 L 33.148438 -17.46875 L 33.539062 -18.535156 L 34.15625 -19.542969 L 34.550781 -20.496094 L 35.164062 -22.621094 L 35.222656 -27.046875 L 34.941406 -28.109375 L 34.773438 -29.171875 L 34.492188 -30.292969 L 32.980469 -33.371094 L 32.195312 -34.214844 L 31.691406 -35.054688 L 28.894531 -37.179688 L 26.933594 -38.1875 L 22.285156 -39.140625 L 20.886719 -39.253906 L 19.261719 -39.195312 L 18.03125 -39.253906 L 16.910156 -39.140625 L 15.679688 -39.253906 L 14.726562 -39.140625 L 11.367188 -39.253906 L 10.304688 -39.085938 L 8.007812 -39.308594 L 6.945312 -39.140625 L 5.710938 -39.195312 L 4.648438 -38.691406 L 4.199219 -37.515625 L 4.03125 -21.839844 L 4.199219 -20.214844 L 4.199219 -17.414062 L 4.085938 -16.238281 L 4.03125 -14.109375 L 4.199219 -12.878906 L 4.03125 -10.582031 L 4.253906 -7.335938 L 4.144531 -6.160156 Z M 15.734375 -20.605469 L 14.78125 -21.109375 L 14.222656 -22.285156 L 14.054688 -28.558594 L 14.726562 -29.675781 L 15.847656 -30.238281 L 16.742188 -30.292969 L 19.820312 -30.238281 L 22.398438 -29.902344 L 24.132812 -28.835938 L 24.695312 -27.996094 L 25.085938 -27.101562 L 25.199219 -25.476562 L 25.03125 -23.964844 L 24.582031 -22.847656 L 23.964844 -21.894531 L 23.292969 -21.222656 L 22.453125 -20.832031 L 18.085938 -20.4375 L 16.964844 -20.605469 Z M 15.734375 -20.605469 "/></g></g></g></svg>